o Cube
                                                                           
mtllib Cube.mtl                                                            

v -2.000000 -1.000000 -1.000000
v -2.000000 -1.000000 1.000000
v -2.000000 1.000000 -1.000000
v -2.000000 1.000000 1.000000
v 2.000000 -1.000000 -1.000000
v 2.000000 -1.000000 1.000000
v 2.000000 1.000000 -1.000000
v 2.000000 1.000000 1.000000
# 8 vertices

vn  -1.000000 0.000000 0.000000
vn  0.000000 0.000000 1.000000
vn  1.000000 0.000000 0.000000
vn  0.000000 0.000000 -1.000000
vn  0.000000 -1.000000 0.000000
vn  0.000000 1.000000 0.000000
# 6 normales

# 0 texture vertices

usemtl mat1

f 1//1 2//1 4//1 3//1
f 2//2 6//2 8//2 4//2
f 6//3 5//3 7//3 8//3
f 5//4 1//4 3//4 7//4
f 5//5 6//5 2//5 1//5
f 3//6 4//6 8//6 7//6
# 6 elements

