g default
v -4.979685 -0.024263 0.026003
v -2.952358 -0.431618 0.711277
v -2.952358 0.983153 0.711277
v -2.952358 0.983153 -0.711277
v -2.952358 -0.431618 -0.711277
v 1.179762 -0.640784 0.886011
v 1.179762 -0.640784 -0.886011
v 1.179762 1.386722 -0.886011
v 1.179762 1.386722 0.886011
v 3.546337 -0.499846 0.486071
v 3.546337 -0.499846 -0.486071
v 3.546337 0.527593 -0.486071
v 3.546337 0.527593 0.486071
v 5.349059 -0.209957 1.520068
v 5.338163 -0.209957 -1.574808
v -0.712069 1.784118 0.000000
v 0.823354 2.593685 0.000000
v -1.363213 -0.722809 -2.211901
v -0.814202 -0.574555 -1.334702
v -1.380976 -0.722809 2.145619
v -0.821408 -0.424667 1.268419
vt 0.250000 0.765625
vt 0.500000 0.000000
vt 0.500000 0.250000
vt 0.500000 0.500000
vt 0.500000 0.750000
vt 0.500000 1.000000
vt 0.750000 0.125000
vt 0.500000 0.000000
vt 0.500000 1.000000
vt 0.500000 0.750000
vt 0.500000 0.500000
vt 0.500000 0.250000
vt 0.500000 0.000000
vt 0.500000 1.000000
vt 0.500000 0.750000
vt 0.500000 0.500000
vt 0.500000 0.250000
vt 0.500000 0.125000
vt 0.500000 0.625000
vt 0.500000 0.375000
vt 0.500000 0.375000
vt 0.500000 0.625000
vt 0.500000 0.625000
vt 0.500000 0.125000
vt 0.500000 0.125000
vn 0.031234 -0.998776 -0.038352
vn 0.409335 -0.000000 0.912384
vn -0.157132 0.272817 0.949147
vn 0.695251 0.600971 0.394284
vn 0.695251 0.600971 0.394284
vn -0.906196 -0.000000 0.422857
vn 0.031234 -0.998776 -0.038352
vn 0.767553 0.566022 -0.300802
vn -0.159297 0.283744 -0.945576
vn 0.467125 0.000000 -0.884191
vn -0.073158 -0.989911 0.121341
vn -0.073158 -0.989911 0.121341
vn -0.911560 0.000000 -0.411168
vn 0.767553 0.566022 -0.300802
vn -0.553601 0.444766 0.704066
vn 0.992267 0.124120 0.000000
vn -0.553601 0.444766 -0.704066
vn -0.407833 0.634151 -0.656906
vn -0.644989 0.764192 -0.000000
vn -0.407833 0.634151 0.656906
vn 0.355830 -0.934551 -0.000406
vn -0.818849 0.000000 -0.574009
vn 0.695785 0.718249 -0.000794
vn 0.695785 0.718249 -0.000794
vn -0.802844 -0.000000 0.596189
vn 0.355830 -0.934551 -0.000406
vn 0.368796 0.000000 0.929510
vn -0.802844 -0.000000 0.596189
vn 0.673569 0.739124 -0.000397
vn 0.673569 0.739124 -0.000397
vn -0.818849 0.000000 -0.574009
vn 0.368796 -0.000000 -0.929510
vn 0.368796 -0.000000 -0.929510
vn -0.818849 0.000000 -0.574009
vn 0.249087 -0.968481 -0.000204
vn 0.249087 -0.968481 -0.000204
vn -0.802844 -0.000000 0.596189
vn 0.368796 0.000000 0.929510
vn 0.650727 0.759312 0.000000
vn 0.992267 0.124120 0.000000
vn -0.407833 0.634151 0.656906
vn -0.157132 0.272817 0.949147
vn 0.409335 -0.000000 0.912384
vn 0.368796 0.000000 0.929510
vn 0.368796 -0.000000 -0.929510
vn 0.467125 0.000000 -0.884191
vn -0.159297 0.283744 -0.945576
vn -0.407833 0.634151 -0.656906
vn 0.992267 0.124120 0.000000
vn 0.650727 0.759312 0.000000
vn -0.096108 -0.993512 0.060798
vn 0.467125 0.000000 -0.884191
vn 0.368796 -0.000000 -0.929510
vn 0.139219 -0.990262 0.000000
vn 0.368796 0.000000 0.929510
vn 0.409335 -0.000000 0.912384
vn -0.043841 -0.998853 -0.019234
vn 0.139219 -0.990262 0.000000
vn -0.649333 -0.000000 -0.760504
vn -0.911560 0.000000 -0.411168
vn -0.209960 -0.976847 0.041066
vn -0.761014 0.648735 0.000000
vn -0.644989 0.764192 -0.000000
vn -0.237865 0.785905 -0.570765
vn -0.159297 0.283744 -0.945576
vn 0.767553 0.566022 -0.300802
vn -0.911560 0.000000 -0.411168
vn -0.649333 -0.000000 -0.760504
vn -0.621630 -0.000000 0.783311
vn -0.906196 -0.000000 0.422857
vn 0.695251 0.600971 0.394284
vn -0.157132 0.272817 0.949147
vn -0.237865 0.785906 0.570765
vn -0.644989 0.764192 -0.000000
vn -0.761014 0.648735 0.000000
vn -0.175442 -0.984403 -0.013040
vn -0.906196 -0.000000 0.422857
vn -0.621630 -0.000000 0.783311
vn -0.621630 -0.000000 0.783311
vn -0.761014 0.648735 0.000000
vn -0.649333 -0.000000 -0.760504
vn -0.428570 -0.903508 -0.000000
s off
usemtl initialShadingGroup
f 1/1/79 2/2/78 3/3/69
f 1/1/80 3/3/75 4/4/62
f 1/1/81 4/4/68 5/5/59
s 4
f 1/1/82 5/5/61 2/6/76
s 5
f 14/18/26 10/14/36 15/7/21
f 10/14/36 11/15/35 15/7/21
s 4
f 7/10/51 6/9/57 5/5/61
f 2/6/76 5/5/61 6/9/57
s off
f 18/22/14 4/4/66 19/23/8
s 7
f 16/20/20 9/12/41 17/21/15
s 4
f 6/9/57 21/25/1 2/6/76
f 20/24/7 2/6/76 21/25/1
s 5
f 6/9/58 7/10/54 10/14/36
f 7/10/54 11/15/35 10/14/36
s 8
f 8/11/45 12/16/32 7/10/53
f 7/10/53 12/16/32 11/15/33
s 9
f 8/11/50 9/12/39 12/16/30
f 9/12/39 13/17/29 12/16/30
s 10
f 9/12/44 6/8/55 13/17/27
f 6/8/55 10/13/38 13/17/27
s off
f 11/15/34 12/16/31 15/19/22
s 9
f 15/19/23 12/16/30 14/18/24
f 12/16/30 13/17/29 14/18/24
s off
f 13/17/28 10/13/37 14/18/25
f 4/4/63 3/3/74 16/20/19
f 9/12/40 8/11/49 17/21/16
s 15
f 8/11/48 4/4/64 16/20/18
s off
f 5/5/60 4/4/67 18/22/13
f 8/11/46 7/10/52 19/23/10
s 4
f 7/10/51 5/5/61 19/23/11
f 5/5/61 18/22/12 19/23/11
s off
f 3/3/70 2/2/77 20/24/6
f 6/8/56 9/12/43 21/25/2
f 3/3/71 20/24/5 21/25/4
f 19/23/9 4/4/65 8/11/47
f 3/3/72 21/25/3 9/12/42
s 15
f 8/11/48 16/20/18 17/21/17
s 7
f 9/12/41 16/20/20 3/3/73
